<mxfile host="app.diagrams.net" modified="2024-04-30T08:04:13.169Z" agent="Mozilla/5.0 (Windows NT 10.0; Win64; x64) AppleWebKit/537.36 (KHTML, like Gecko) Chrome/124.0.0.0 Safari/537.36" etag="jeqf-Z_LYkJY-3EC-Sf8" version="24.2.1" type="device">
  <diagram name="1 oldal" id="BCpiGgkupaLWpLvZZOlz">
    <mxGraphModel dx="3452" dy="2494" grid="1" gridSize="10" guides="1" tooltips="1" connect="1" arrows="1" fold="1" page="1" pageScale="1" pageWidth="827" pageHeight="1169" math="0" shadow="0">
      <root>
        <mxCell id="0" />
        <mxCell id="1" parent="0" />
        <mxCell id="ErqUiqEADnRc6sU7gWU9-1" value="User" style="rounded=0;whiteSpace=wrap;html=1;" parent="1" vertex="1">
          <mxGeometry x="-130" y="-270" width="120" height="60" as="geometry" />
        </mxCell>
        <mxCell id="ErqUiqEADnRc6sU7gWU9-3" value="Folder" style="rounded=0;whiteSpace=wrap;html=1;" parent="1" vertex="1">
          <mxGeometry x="660" y="-270" width="120" height="60" as="geometry" />
        </mxCell>
        <mxCell id="ErqUiqEADnRc6sU7gWU9-4" value="File" style="rounded=0;whiteSpace=wrap;html=1;" parent="1" vertex="1">
          <mxGeometry x="660" y="330" width="120" height="60" as="geometry" />
        </mxCell>
        <mxCell id="ErqUiqEADnRc6sU7gWU9-6" value="Comment" style="rounded=0;whiteSpace=wrap;html=1;" parent="1" vertex="1">
          <mxGeometry x="-130" y="510" width="120" height="60" as="geometry" />
        </mxCell>
        <mxCell id="ErqUiqEADnRc6sU7gWU9-7" value="email" style="ellipse;whiteSpace=wrap;html=1;" parent="1" vertex="1">
          <mxGeometry x="-310" y="-280" width="120" height="80" as="geometry" />
        </mxCell>
        <mxCell id="ErqUiqEADnRc6sU7gWU9-8" value="&lt;u&gt;username&lt;/u&gt;" style="ellipse;whiteSpace=wrap;html=1;" parent="1" vertex="1">
          <mxGeometry x="-310" y="-380" width="120" height="80" as="geometry" />
        </mxCell>
        <mxCell id="ErqUiqEADnRc6sU7gWU9-9" value="password" style="ellipse;whiteSpace=wrap;html=1;" parent="1" vertex="1">
          <mxGeometry x="-310" y="-480" width="120" height="80" as="geometry" />
        </mxCell>
        <mxCell id="ErqUiqEADnRc6sU7gWU9-10" value="folderName" style="ellipse;whiteSpace=wrap;html=1;" parent="1" vertex="1">
          <mxGeometry x="820" y="-280" width="120" height="80" as="geometry" />
        </mxCell>
        <mxCell id="ErqUiqEADnRc6sU7gWU9-13" value="visibility" style="ellipse;whiteSpace=wrap;html=1;" parent="1" vertex="1">
          <mxGeometry x="560" y="-460" width="120" height="80" as="geometry" />
        </mxCell>
        <mxCell id="ErqUiqEADnRc6sU7gWU9-14" value="createDate" style="ellipse;whiteSpace=wrap;html=1;" parent="1" vertex="1">
          <mxGeometry x="690" y="-460" width="120" height="80" as="geometry" />
        </mxCell>
        <mxCell id="ErqUiqEADnRc6sU7gWU9-16" value="fileName" style="ellipse;whiteSpace=wrap;html=1;" parent="1" vertex="1">
          <mxGeometry x="550" y="470" width="120" height="80" as="geometry" />
        </mxCell>
        <mxCell id="ErqUiqEADnRc6sU7gWU9-17" value="owner" style="ellipse;whiteSpace=wrap;html=1;" parent="1" vertex="1">
          <mxGeometry x="680" y="470" width="120" height="80" as="geometry" />
        </mxCell>
        <mxCell id="ErqUiqEADnRc6sU7gWU9-18" value="&lt;u&gt;fileID&lt;/u&gt;" style="ellipse;whiteSpace=wrap;html=1;" parent="1" vertex="1">
          <mxGeometry x="810" y="470" width="120" height="80" as="geometry" />
        </mxCell>
        <mxCell id="ErqUiqEADnRc6sU7gWU9-19" value="visibility" style="ellipse;whiteSpace=wrap;html=1;" parent="1" vertex="1">
          <mxGeometry x="940" y="470" width="120" height="80" as="geometry" />
        </mxCell>
        <mxCell id="ErqUiqEADnRc6sU7gWU9-20" value="createDate" style="ellipse;whiteSpace=wrap;html=1;" parent="1" vertex="1">
          <mxGeometry x="940" y="380" width="120" height="80" as="geometry" />
        </mxCell>
        <mxCell id="ErqUiqEADnRc6sU7gWU9-21" value="parent" style="ellipse;whiteSpace=wrap;html=1;" parent="1" vertex="1">
          <mxGeometry x="820" y="-370" width="120" height="80" as="geometry" />
        </mxCell>
        <mxCell id="ErqUiqEADnRc6sU7gWU9-23" value="fileType" style="ellipse;whiteSpace=wrap;html=1;" parent="1" vertex="1">
          <mxGeometry x="940" y="290" width="120" height="80" as="geometry" />
        </mxCell>
        <mxCell id="ErqUiqEADnRc6sU7gWU9-24" value="&lt;u&gt;commentID&lt;/u&gt;" style="ellipse;whiteSpace=wrap;html=1;" parent="1" vertex="1">
          <mxGeometry x="-290" y="590" width="120" height="80" as="geometry" />
        </mxCell>
        <mxCell id="ErqUiqEADnRc6sU7gWU9-25" value="text" style="ellipse;whiteSpace=wrap;html=1;" parent="1" vertex="1">
          <mxGeometry x="-160" y="590" width="120" height="80" as="geometry" />
        </mxCell>
        <mxCell id="ErqUiqEADnRc6sU7gWU9-26" value="date" style="ellipse;whiteSpace=wrap;html=1;" parent="1" vertex="1">
          <mxGeometry x="-30" y="590" width="120" height="80" as="geometry" />
        </mxCell>
        <mxCell id="ErqUiqEADnRc6sU7gWU9-27" value="hasComment" style="rhombus;whiteSpace=wrap;html=1;" parent="1" vertex="1">
          <mxGeometry x="-110" y="320" width="80" height="80" as="geometry" />
        </mxCell>
        <mxCell id="ErqUiqEADnRc6sU7gWU9-30" value="" style="endArrow=none;html=1;rounded=0;" parent="1" source="ErqUiqEADnRc6sU7gWU9-72" target="ErqUiqEADnRc6sU7gWU9-4" edge="1">
          <mxGeometry width="50" height="50" relative="1" as="geometry">
            <mxPoint x="260" y="170" as="sourcePoint" />
            <mxPoint x="460" y="170" as="targetPoint" />
          </mxGeometry>
        </mxCell>
        <mxCell id="ErqUiqEADnRc6sU7gWU9-31" value="" style="endArrow=none;html=1;rounded=0;" parent="1" source="ErqUiqEADnRc6sU7gWU9-71" target="ErqUiqEADnRc6sU7gWU9-6" edge="1">
          <mxGeometry width="50" height="50" relative="1" as="geometry">
            <mxPoint x="120" y="340" as="sourcePoint" />
            <mxPoint x="340" y="340" as="targetPoint" />
          </mxGeometry>
        </mxCell>
        <mxCell id="ErqUiqEADnRc6sU7gWU9-32" value="" style="endArrow=none;html=1;rounded=0;" parent="1" source="ErqUiqEADnRc6sU7gWU9-70" target="ErqUiqEADnRc6sU7gWU9-27" edge="1">
          <mxGeometry width="50" height="50" relative="1" as="geometry">
            <mxPoint x="80" y="380" as="sourcePoint" />
            <mxPoint x="80" y="500" as="targetPoint" />
          </mxGeometry>
        </mxCell>
        <mxCell id="ErqUiqEADnRc6sU7gWU9-33" value="Rate" style="rhombus;whiteSpace=wrap;html=1;" parent="1" vertex="1">
          <mxGeometry x="180" y="150" width="80" height="80" as="geometry" />
        </mxCell>
        <mxCell id="ErqUiqEADnRc6sU7gWU9-34" value="" style="endArrow=none;html=1;rounded=0;" parent="1" source="ErqUiqEADnRc6sU7gWU9-66" target="ErqUiqEADnRc6sU7gWU9-33" edge="1">
          <mxGeometry width="50" height="50" relative="1" as="geometry">
            <mxPoint x="320" y="310" as="sourcePoint" />
            <mxPoint x="370" y="260" as="targetPoint" />
          </mxGeometry>
        </mxCell>
        <mxCell id="ErqUiqEADnRc6sU7gWU9-35" value="" style="endArrow=none;html=1;rounded=0;" parent="1" source="ErqUiqEADnRc6sU7gWU9-67" target="ErqUiqEADnRc6sU7gWU9-33" edge="1">
          <mxGeometry width="50" height="50" relative="1" as="geometry">
            <mxPoint x="140" y="190" as="sourcePoint" />
            <mxPoint x="253" y="247" as="targetPoint" />
          </mxGeometry>
        </mxCell>
        <mxCell id="ErqUiqEADnRc6sU7gWU9-36" value="rate" style="ellipse;whiteSpace=wrap;html=1;" parent="1" vertex="1">
          <mxGeometry x="100" y="210" width="120" height="80" as="geometry" />
        </mxCell>
        <mxCell id="ErqUiqEADnRc6sU7gWU9-37" value="" style="endArrow=none;html=1;rounded=0;" parent="1" source="ErqUiqEADnRc6sU7gWU9-33" target="ErqUiqEADnRc6sU7gWU9-36" edge="1">
          <mxGeometry width="50" height="50" relative="1" as="geometry">
            <mxPoint x="320" y="60" as="sourcePoint" />
            <mxPoint x="370" y="10" as="targetPoint" />
          </mxGeometry>
        </mxCell>
        <mxCell id="ErqUiqEADnRc6sU7gWU9-38" value="hasFolder" style="rhombus;whiteSpace=wrap;html=1;" parent="1" vertex="1">
          <mxGeometry x="480" y="-280" width="80" height="80" as="geometry" />
        </mxCell>
        <mxCell id="ErqUiqEADnRc6sU7gWU9-39" value="" style="endArrow=none;html=1;rounded=0;" parent="1" source="ErqUiqEADnRc6sU7gWU9-64" target="ErqUiqEADnRc6sU7gWU9-38" edge="1">
          <mxGeometry width="50" height="50" relative="1" as="geometry">
            <mxPoint x="320" as="sourcePoint" />
            <mxPoint x="370" y="-50" as="targetPoint" />
          </mxGeometry>
        </mxCell>
        <mxCell id="ErqUiqEADnRc6sU7gWU9-40" value="" style="endArrow=none;html=1;rounded=0;" parent="1" source="ErqUiqEADnRc6sU7gWU9-65" target="ErqUiqEADnRc6sU7gWU9-38" edge="1">
          <mxGeometry width="50" height="50" relative="1" as="geometry">
            <mxPoint x="345" y="-260" as="sourcePoint" />
            <mxPoint x="488" y="-382" as="targetPoint" />
          </mxGeometry>
        </mxCell>
        <mxCell id="ErqUiqEADnRc6sU7gWU9-41" value="containsFile" style="rhombus;whiteSpace=wrap;html=1;" parent="1" vertex="1">
          <mxGeometry x="680" y="-80" width="80" height="80" as="geometry" />
        </mxCell>
        <mxCell id="ErqUiqEADnRc6sU7gWU9-42" value="" style="endArrow=none;html=1;rounded=0;" parent="1" source="ErqUiqEADnRc6sU7gWU9-68" target="ErqUiqEADnRc6sU7gWU9-3" edge="1">
          <mxGeometry width="50" height="50" relative="1" as="geometry">
            <mxPoint x="320" y="150" as="sourcePoint" />
            <mxPoint x="370" y="100" as="targetPoint" />
          </mxGeometry>
        </mxCell>
        <mxCell id="ErqUiqEADnRc6sU7gWU9-43" value="" style="endArrow=none;html=1;rounded=0;" parent="1" source="ErqUiqEADnRc6sU7gWU9-69" target="ErqUiqEADnRc6sU7gWU9-41" edge="1">
          <mxGeometry width="50" height="50" relative="1" as="geometry">
            <mxPoint x="510" y="90" as="sourcePoint" />
            <mxPoint x="510" y="-30" as="targetPoint" />
          </mxGeometry>
        </mxCell>
        <mxCell id="ErqUiqEADnRc6sU7gWU9-44" value="&lt;u&gt;folderID&lt;/u&gt;" style="ellipse;whiteSpace=wrap;html=1;" parent="1" vertex="1">
          <mxGeometry x="820" y="-460" width="120" height="80" as="geometry" />
        </mxCell>
        <mxCell id="ErqUiqEADnRc6sU7gWU9-45" value="" style="endArrow=none;html=1;rounded=0;" parent="1" source="ErqUiqEADnRc6sU7gWU9-9" target="ErqUiqEADnRc6sU7gWU9-1" edge="1">
          <mxGeometry width="50" height="50" relative="1" as="geometry">
            <mxPoint x="260" y="-410" as="sourcePoint" />
            <mxPoint x="310" y="-460" as="targetPoint" />
          </mxGeometry>
        </mxCell>
        <mxCell id="ErqUiqEADnRc6sU7gWU9-46" value="" style="endArrow=none;html=1;rounded=0;" parent="1" source="ErqUiqEADnRc6sU7gWU9-8" target="ErqUiqEADnRc6sU7gWU9-1" edge="1">
          <mxGeometry width="50" height="50" relative="1" as="geometry">
            <mxPoint x="-209" y="-396" as="sourcePoint" />
            <mxPoint x="-87" y="-260" as="targetPoint" />
          </mxGeometry>
        </mxCell>
        <mxCell id="ErqUiqEADnRc6sU7gWU9-47" value="" style="endArrow=none;html=1;rounded=0;" parent="1" source="ErqUiqEADnRc6sU7gWU9-7" target="ErqUiqEADnRc6sU7gWU9-1" edge="1">
          <mxGeometry width="50" height="50" relative="1" as="geometry">
            <mxPoint x="260" y="-410" as="sourcePoint" />
            <mxPoint x="310" y="-460" as="targetPoint" />
          </mxGeometry>
        </mxCell>
        <mxCell id="ErqUiqEADnRc6sU7gWU9-48" value="" style="endArrow=none;html=1;rounded=0;" parent="1" source="ErqUiqEADnRc6sU7gWU9-3" target="ErqUiqEADnRc6sU7gWU9-44" edge="1">
          <mxGeometry width="50" height="50" relative="1" as="geometry">
            <mxPoint x="190" y="-230" as="sourcePoint" />
            <mxPoint x="250" y="-230" as="targetPoint" />
          </mxGeometry>
        </mxCell>
        <mxCell id="ErqUiqEADnRc6sU7gWU9-50" value="" style="endArrow=none;html=1;rounded=0;" parent="1" source="ErqUiqEADnRc6sU7gWU9-3" target="ErqUiqEADnRc6sU7gWU9-21" edge="1">
          <mxGeometry width="50" height="50" relative="1" as="geometry">
            <mxPoint x="765" y="-260" as="sourcePoint" />
            <mxPoint x="861" y="-375" as="targetPoint" />
          </mxGeometry>
        </mxCell>
        <mxCell id="ErqUiqEADnRc6sU7gWU9-51" value="" style="endArrow=none;html=1;rounded=0;" parent="1" source="ErqUiqEADnRc6sU7gWU9-3" target="ErqUiqEADnRc6sU7gWU9-10" edge="1">
          <mxGeometry width="50" height="50" relative="1" as="geometry">
            <mxPoint x="790" y="-260" as="sourcePoint" />
            <mxPoint x="845" y="-293" as="targetPoint" />
          </mxGeometry>
        </mxCell>
        <mxCell id="ErqUiqEADnRc6sU7gWU9-52" value="" style="endArrow=none;html=1;rounded=0;" parent="1" source="ErqUiqEADnRc6sU7gWU9-3" target="ErqUiqEADnRc6sU7gWU9-14" edge="1">
          <mxGeometry width="50" height="50" relative="1" as="geometry">
            <mxPoint x="800" y="-230" as="sourcePoint" />
            <mxPoint x="830" y="-230" as="targetPoint" />
          </mxGeometry>
        </mxCell>
        <mxCell id="ErqUiqEADnRc6sU7gWU9-53" value="" style="endArrow=none;html=1;rounded=0;" parent="1" source="ErqUiqEADnRc6sU7gWU9-3" target="ErqUiqEADnRc6sU7gWU9-13" edge="1">
          <mxGeometry width="50" height="50" relative="1" as="geometry">
            <mxPoint x="800" y="-249" as="sourcePoint" />
            <mxPoint x="966" y="-303" as="targetPoint" />
          </mxGeometry>
        </mxCell>
        <mxCell id="ErqUiqEADnRc6sU7gWU9-55" value="" style="endArrow=none;html=1;rounded=0;" parent="1" source="ErqUiqEADnRc6sU7gWU9-18" target="ErqUiqEADnRc6sU7gWU9-4" edge="1">
          <mxGeometry width="50" height="50" relative="1" as="geometry">
            <mxPoint x="800" y="-39" as="sourcePoint" />
            <mxPoint x="966" y="-93" as="targetPoint" />
          </mxGeometry>
        </mxCell>
        <mxCell id="ErqUiqEADnRc6sU7gWU9-56" value="" style="endArrow=none;html=1;rounded=0;" parent="1" source="ErqUiqEADnRc6sU7gWU9-17" target="ErqUiqEADnRc6sU7gWU9-4" edge="1">
          <mxGeometry width="50" height="50" relative="1" as="geometry">
            <mxPoint x="822" y="351" as="sourcePoint" />
            <mxPoint x="790" y="358" as="targetPoint" />
          </mxGeometry>
        </mxCell>
        <mxCell id="ErqUiqEADnRc6sU7gWU9-57" value="" style="endArrow=none;html=1;rounded=0;" parent="1" source="ErqUiqEADnRc6sU7gWU9-16" target="ErqUiqEADnRc6sU7gWU9-4" edge="1">
          <mxGeometry width="50" height="50" relative="1" as="geometry">
            <mxPoint x="828" y="410" as="sourcePoint" />
            <mxPoint x="790" y="394" as="targetPoint" />
          </mxGeometry>
        </mxCell>
        <mxCell id="ErqUiqEADnRc6sU7gWU9-58" value="" style="endArrow=none;html=1;rounded=0;" parent="1" source="ErqUiqEADnRc6sU7gWU9-23" target="ErqUiqEADnRc6sU7gWU9-4" edge="1">
          <mxGeometry width="50" height="50" relative="1" as="geometry">
            <mxPoint x="847" y="487" as="sourcePoint" />
            <mxPoint x="760" y="400" as="targetPoint" />
          </mxGeometry>
        </mxCell>
        <mxCell id="ErqUiqEADnRc6sU7gWU9-59" value="" style="endArrow=none;html=1;rounded=0;" parent="1" source="ErqUiqEADnRc6sU7gWU9-20" target="ErqUiqEADnRc6sU7gWU9-4" edge="1">
          <mxGeometry width="50" height="50" relative="1" as="geometry">
            <mxPoint x="951" y="346" as="sourcePoint" />
            <mxPoint x="790" y="364" as="targetPoint" />
          </mxGeometry>
        </mxCell>
        <mxCell id="ErqUiqEADnRc6sU7gWU9-60" value="" style="endArrow=none;html=1;rounded=0;" parent="1" source="ErqUiqEADnRc6sU7gWU9-19" target="ErqUiqEADnRc6sU7gWU9-4" edge="1">
          <mxGeometry width="50" height="50" relative="1" as="geometry">
            <mxPoint x="953" y="418" as="sourcePoint" />
            <mxPoint x="790" y="383" as="targetPoint" />
          </mxGeometry>
        </mxCell>
        <mxCell id="ErqUiqEADnRc6sU7gWU9-61" value="" style="endArrow=none;html=1;rounded=0;" parent="1" source="ErqUiqEADnRc6sU7gWU9-24" target="ErqUiqEADnRc6sU7gWU9-6" edge="1">
          <mxGeometry width="50" height="50" relative="1" as="geometry">
            <mxPoint x="-372" y="540" as="sourcePoint" />
            <mxPoint x="-310" y="456" as="targetPoint" />
          </mxGeometry>
        </mxCell>
        <mxCell id="ErqUiqEADnRc6sU7gWU9-62" value="" style="endArrow=none;html=1;rounded=0;" parent="1" source="ErqUiqEADnRc6sU7gWU9-25" target="ErqUiqEADnRc6sU7gWU9-6" edge="1">
          <mxGeometry width="50" height="50" relative="1" as="geometry">
            <mxPoint x="-174" y="614" as="sourcePoint" />
            <mxPoint x="-113" y="580" as="targetPoint" />
          </mxGeometry>
        </mxCell>
        <mxCell id="ErqUiqEADnRc6sU7gWU9-63" value="" style="endArrow=none;html=1;rounded=0;" parent="1" source="ErqUiqEADnRc6sU7gWU9-26" target="ErqUiqEADnRc6sU7gWU9-6" edge="1">
          <mxGeometry width="50" height="50" relative="1" as="geometry">
            <mxPoint x="-77" y="601" as="sourcePoint" />
            <mxPoint x="-70" y="580" as="targetPoint" />
          </mxGeometry>
        </mxCell>
        <mxCell id="CCAKP2tyW_ClBs_9teVJ-2" value="Bookmark" style="rhombus;whiteSpace=wrap;html=1;" parent="1" vertex="1">
          <mxGeometry x="280" y="10" width="80" height="80" as="geometry" />
        </mxCell>
        <mxCell id="CCAKP2tyW_ClBs_9teVJ-3" value="" style="endArrow=none;html=1;rounded=0;" parent="1" source="CCAKP2tyW_ClBs_9teVJ-25" target="CCAKP2tyW_ClBs_9teVJ-2" edge="1">
          <mxGeometry width="50" height="50" relative="1" as="geometry">
            <mxPoint x="-40" y="-200" as="sourcePoint" />
            <mxPoint x="214" y="176" as="targetPoint" />
          </mxGeometry>
        </mxCell>
        <mxCell id="CCAKP2tyW_ClBs_9teVJ-4" value="" style="endArrow=none;html=1;rounded=0;" parent="1" source="CCAKP2tyW_ClBs_9teVJ-23" target="ErqUiqEADnRc6sU7gWU9-4" edge="1">
          <mxGeometry width="50" height="50" relative="1" as="geometry">
            <mxPoint x="-10" y="-200" as="sourcePoint" />
            <mxPoint x="345" y="15" as="targetPoint" />
          </mxGeometry>
        </mxCell>
        <mxCell id="CCAKP2tyW_ClBs_9teVJ-11" value="FileShared" style="rhombus;whiteSpace=wrap;html=1;" parent="1" vertex="1">
          <mxGeometry x="374" y="-100" width="80" height="80" as="geometry" />
        </mxCell>
        <mxCell id="CCAKP2tyW_ClBs_9teVJ-12" value="" style="endArrow=none;html=1;rounded=0;" parent="1" source="CCAKP2tyW_ClBs_9teVJ-29" target="CCAKP2tyW_ClBs_9teVJ-11" edge="1">
          <mxGeometry width="50" height="50" relative="1" as="geometry">
            <mxPoint x="708" y="340" as="sourcePoint" />
            <mxPoint x="447" y="-7" as="targetPoint" />
          </mxGeometry>
        </mxCell>
        <mxCell id="CCAKP2tyW_ClBs_9teVJ-13" value="" style="endArrow=none;html=1;rounded=0;" parent="1" source="CCAKP2tyW_ClBs_9teVJ-27" target="ErqUiqEADnRc6sU7gWU9-1" edge="1">
          <mxGeometry width="50" height="50" relative="1" as="geometry">
            <mxPoint x="715" y="340" as="sourcePoint" />
            <mxPoint x="513" y="-63" as="targetPoint" />
          </mxGeometry>
        </mxCell>
        <mxCell id="CCAKP2tyW_ClBs_9teVJ-14" value="" style="endArrow=none;html=1;rounded=0;" parent="1" source="ErqUiqEADnRc6sU7gWU9-1" target="ErqUiqEADnRc6sU7gWU9-66" edge="1">
          <mxGeometry width="50" height="50" relative="1" as="geometry">
            <mxPoint x="-50" y="-210" as="sourcePoint" />
            <mxPoint x="204" y="166" as="targetPoint" />
          </mxGeometry>
        </mxCell>
        <mxCell id="ErqUiqEADnRc6sU7gWU9-66" value="1" style="text;html=1;align=center;verticalAlign=middle;resizable=0;points=[];autosize=1;strokeColor=none;fillColor=none;" parent="1" vertex="1">
          <mxGeometry x="-40" y="-190" width="30" height="30" as="geometry" />
        </mxCell>
        <mxCell id="CCAKP2tyW_ClBs_9teVJ-15" value="" style="endArrow=none;html=1;rounded=0;" parent="1" source="ErqUiqEADnRc6sU7gWU9-1" target="ErqUiqEADnRc6sU7gWU9-70" edge="1">
          <mxGeometry width="50" height="50" relative="1" as="geometry">
            <mxPoint x="-70" y="-210" as="sourcePoint" />
            <mxPoint x="-70" y="320" as="targetPoint" />
          </mxGeometry>
        </mxCell>
        <mxCell id="ErqUiqEADnRc6sU7gWU9-70" value="1" style="text;html=1;align=center;verticalAlign=middle;resizable=0;points=[];autosize=1;strokeColor=none;fillColor=none;" parent="1" vertex="1">
          <mxGeometry x="-85" y="-190" width="30" height="30" as="geometry" />
        </mxCell>
        <mxCell id="CCAKP2tyW_ClBs_9teVJ-16" value="" style="endArrow=none;html=1;rounded=0;" parent="1" source="ErqUiqEADnRc6sU7gWU9-1" target="ErqUiqEADnRc6sU7gWU9-64" edge="1">
          <mxGeometry width="50" height="50" relative="1" as="geometry">
            <mxPoint x="-10" y="-240" as="sourcePoint" />
            <mxPoint x="480" y="-240" as="targetPoint" />
          </mxGeometry>
        </mxCell>
        <mxCell id="ErqUiqEADnRc6sU7gWU9-64" value="1" style="text;html=1;align=center;verticalAlign=middle;resizable=0;points=[];autosize=1;strokeColor=none;fillColor=none;" parent="1" vertex="1">
          <mxGeometry x="15" y="-255" width="30" height="30" as="geometry" />
        </mxCell>
        <mxCell id="CCAKP2tyW_ClBs_9teVJ-17" value="" style="endArrow=none;html=1;rounded=0;" parent="1" source="ErqUiqEADnRc6sU7gWU9-3" target="ErqUiqEADnRc6sU7gWU9-65" edge="1">
          <mxGeometry width="50" height="50" relative="1" as="geometry">
            <mxPoint x="660" y="-240" as="sourcePoint" />
            <mxPoint x="560" y="-240" as="targetPoint" />
          </mxGeometry>
        </mxCell>
        <mxCell id="ErqUiqEADnRc6sU7gWU9-65" value="N" style="text;html=1;align=center;verticalAlign=middle;resizable=0;points=[];autosize=1;strokeColor=none;fillColor=none;" parent="1" vertex="1">
          <mxGeometry x="630" y="-255" width="30" height="30" as="geometry" />
        </mxCell>
        <mxCell id="CCAKP2tyW_ClBs_9teVJ-18" value="" style="endArrow=none;html=1;rounded=0;" parent="1" source="ErqUiqEADnRc6sU7gWU9-41" target="ErqUiqEADnRc6sU7gWU9-68" edge="1">
          <mxGeometry width="50" height="50" relative="1" as="geometry">
            <mxPoint x="720" y="-80" as="sourcePoint" />
            <mxPoint x="720" y="-210" as="targetPoint" />
          </mxGeometry>
        </mxCell>
        <mxCell id="ErqUiqEADnRc6sU7gWU9-68" value="1" style="text;html=1;align=center;verticalAlign=middle;resizable=0;points=[];autosize=1;strokeColor=none;fillColor=none;" parent="1" vertex="1">
          <mxGeometry x="705" y="-200" width="30" height="30" as="geometry" />
        </mxCell>
        <mxCell id="CCAKP2tyW_ClBs_9teVJ-19" value="" style="endArrow=none;html=1;rounded=0;" parent="1" source="ErqUiqEADnRc6sU7gWU9-4" target="ErqUiqEADnRc6sU7gWU9-69" edge="1">
          <mxGeometry width="50" height="50" relative="1" as="geometry">
            <mxPoint x="720" y="330" as="sourcePoint" />
            <mxPoint x="720" as="targetPoint" />
          </mxGeometry>
        </mxCell>
        <mxCell id="ErqUiqEADnRc6sU7gWU9-69" value="N" style="text;html=1;align=center;verticalAlign=middle;resizable=0;points=[];autosize=1;strokeColor=none;fillColor=none;" parent="1" vertex="1">
          <mxGeometry x="705" y="300" width="30" height="30" as="geometry" />
        </mxCell>
        <mxCell id="CCAKP2tyW_ClBs_9teVJ-20" value="" style="endArrow=none;html=1;rounded=0;" parent="1" source="ErqUiqEADnRc6sU7gWU9-4" target="ErqUiqEADnRc6sU7gWU9-67" edge="1">
          <mxGeometry width="50" height="50" relative="1" as="geometry">
            <mxPoint x="660" y="340" as="sourcePoint" />
            <mxPoint x="250" y="200" as="targetPoint" />
          </mxGeometry>
        </mxCell>
        <mxCell id="ErqUiqEADnRc6sU7gWU9-67" value="N" style="text;html=1;align=center;verticalAlign=middle;resizable=0;points=[];autosize=1;strokeColor=none;fillColor=none;" parent="1" vertex="1">
          <mxGeometry x="605" y="315" width="30" height="30" as="geometry" />
        </mxCell>
        <mxCell id="CCAKP2tyW_ClBs_9teVJ-21" value="" style="endArrow=none;html=1;rounded=0;" parent="1" source="ErqUiqEADnRc6sU7gWU9-27" target="ErqUiqEADnRc6sU7gWU9-72" edge="1">
          <mxGeometry width="50" height="50" relative="1" as="geometry">
            <mxPoint x="-30" y="360" as="sourcePoint" />
            <mxPoint x="660" y="360" as="targetPoint" />
          </mxGeometry>
        </mxCell>
        <mxCell id="ErqUiqEADnRc6sU7gWU9-72" value="N" style="text;html=1;align=center;verticalAlign=middle;resizable=0;points=[];autosize=1;strokeColor=none;fillColor=none;" parent="1" vertex="1">
          <mxGeometry x="605" y="350" width="30" height="30" as="geometry" />
        </mxCell>
        <mxCell id="CCAKP2tyW_ClBs_9teVJ-22" value="" style="endArrow=none;html=1;rounded=0;" parent="1" source="ErqUiqEADnRc6sU7gWU9-27" target="ErqUiqEADnRc6sU7gWU9-71" edge="1">
          <mxGeometry width="50" height="50" relative="1" as="geometry">
            <mxPoint x="-70" y="400" as="sourcePoint" />
            <mxPoint x="-70" y="510" as="targetPoint" />
          </mxGeometry>
        </mxCell>
        <mxCell id="ErqUiqEADnRc6sU7gWU9-71" value="N" style="text;html=1;align=center;verticalAlign=middle;resizable=0;points=[];autosize=1;strokeColor=none;fillColor=none;" parent="1" vertex="1">
          <mxGeometry x="-85" y="470" width="30" height="30" as="geometry" />
        </mxCell>
        <mxCell id="CCAKP2tyW_ClBs_9teVJ-24" value="" style="endArrow=none;html=1;rounded=0;" parent="1" source="CCAKP2tyW_ClBs_9teVJ-2" target="CCAKP2tyW_ClBs_9teVJ-23" edge="1">
          <mxGeometry width="50" height="50" relative="1" as="geometry">
            <mxPoint x="343" y="67" as="sourcePoint" />
            <mxPoint x="681" y="330" as="targetPoint" />
          </mxGeometry>
        </mxCell>
        <mxCell id="CCAKP2tyW_ClBs_9teVJ-23" value="N" style="text;html=1;align=center;verticalAlign=middle;resizable=0;points=[];autosize=1;strokeColor=none;fillColor=none;" parent="1" vertex="1">
          <mxGeometry x="640" y="300" width="30" height="30" as="geometry" />
        </mxCell>
        <mxCell id="CCAKP2tyW_ClBs_9teVJ-26" value="" style="endArrow=none;html=1;rounded=0;" parent="1" source="ErqUiqEADnRc6sU7gWU9-1" target="CCAKP2tyW_ClBs_9teVJ-25" edge="1">
          <mxGeometry width="50" height="50" relative="1" as="geometry">
            <mxPoint x="-30" y="-210" as="sourcePoint" />
            <mxPoint x="297" y="33" as="targetPoint" />
          </mxGeometry>
        </mxCell>
        <mxCell id="CCAKP2tyW_ClBs_9teVJ-25" value="N" style="text;html=1;align=center;verticalAlign=middle;resizable=0;points=[];autosize=1;strokeColor=none;fillColor=none;" parent="1" vertex="1">
          <mxGeometry x="-15" y="-200" width="30" height="30" as="geometry" />
        </mxCell>
        <mxCell id="CCAKP2tyW_ClBs_9teVJ-28" value="" style="endArrow=none;html=1;rounded=0;" parent="1" source="CCAKP2tyW_ClBs_9teVJ-11" target="CCAKP2tyW_ClBs_9teVJ-27" edge="1">
          <mxGeometry width="50" height="50" relative="1" as="geometry">
            <mxPoint x="458" y="-108" as="sourcePoint" />
            <mxPoint x="-10" y="-225" as="targetPoint" />
          </mxGeometry>
        </mxCell>
        <mxCell id="CCAKP2tyW_ClBs_9teVJ-27" value="N" style="text;html=1;align=center;verticalAlign=middle;resizable=0;points=[];autosize=1;strokeColor=none;fillColor=none;" parent="1" vertex="1">
          <mxGeometry x="15" y="-225" width="30" height="30" as="geometry" />
        </mxCell>
        <mxCell id="CCAKP2tyW_ClBs_9teVJ-30" value="" style="endArrow=none;html=1;rounded=0;" parent="1" source="ErqUiqEADnRc6sU7gWU9-4" target="CCAKP2tyW_ClBs_9teVJ-29" edge="1">
          <mxGeometry width="50" height="50" relative="1" as="geometry">
            <mxPoint x="705" y="330" as="sourcePoint" />
            <mxPoint x="503" y="-73" as="targetPoint" />
          </mxGeometry>
        </mxCell>
        <mxCell id="CCAKP2tyW_ClBs_9teVJ-29" value="N" style="text;html=1;align=center;verticalAlign=middle;resizable=0;points=[];autosize=1;strokeColor=none;fillColor=none;" parent="1" vertex="1">
          <mxGeometry x="675" y="285" width="30" height="30" as="geometry" />
        </mxCell>
        <mxCell id="CCAKP2tyW_ClBs_9teVJ-31" value="FolderShared" style="rhombus;whiteSpace=wrap;html=1;" parent="1" vertex="1">
          <mxGeometry x="454" y="-160" width="80" height="80" as="geometry" />
        </mxCell>
        <mxCell id="CCAKP2tyW_ClBs_9teVJ-32" value="" style="endArrow=none;html=1;rounded=0;" parent="1" source="CCAKP2tyW_ClBs_9teVJ-36" target="ErqUiqEADnRc6sU7gWU9-1" edge="1">
          <mxGeometry width="50" height="50" relative="1" as="geometry">
            <mxPoint x="395" y="-61" as="sourcePoint" />
            <mxPoint x="55" y="-194" as="targetPoint" />
          </mxGeometry>
        </mxCell>
        <mxCell id="CCAKP2tyW_ClBs_9teVJ-33" value="" style="endArrow=none;html=1;rounded=0;" parent="1" source="CCAKP2tyW_ClBs_9teVJ-34" target="CCAKP2tyW_ClBs_9teVJ-31" edge="1">
          <mxGeometry width="50" height="50" relative="1" as="geometry">
            <mxPoint x="524" y="-130" as="sourcePoint" />
            <mxPoint y="-220" as="targetPoint" />
          </mxGeometry>
        </mxCell>
        <mxCell id="CCAKP2tyW_ClBs_9teVJ-35" value="" style="endArrow=none;html=1;rounded=0;" parent="1" source="ErqUiqEADnRc6sU7gWU9-3" target="CCAKP2tyW_ClBs_9teVJ-34" edge="1">
          <mxGeometry width="50" height="50" relative="1" as="geometry">
            <mxPoint x="664" y="-210" as="sourcePoint" />
            <mxPoint x="520" y="-134" as="targetPoint" />
          </mxGeometry>
        </mxCell>
        <mxCell id="CCAKP2tyW_ClBs_9teVJ-34" value="N" style="text;html=1;align=center;verticalAlign=middle;resizable=0;points=[];autosize=1;strokeColor=none;fillColor=none;" parent="1" vertex="1">
          <mxGeometry x="620" y="-205" width="30" height="30" as="geometry" />
        </mxCell>
        <mxCell id="CCAKP2tyW_ClBs_9teVJ-38" value="" style="endArrow=none;html=1;rounded=0;" parent="1" source="CCAKP2tyW_ClBs_9teVJ-31" target="CCAKP2tyW_ClBs_9teVJ-36" edge="1">
          <mxGeometry width="50" height="50" relative="1" as="geometry">
            <mxPoint x="461" y="-127" as="sourcePoint" />
            <mxPoint x="-10" y="-227" as="targetPoint" />
          </mxGeometry>
        </mxCell>
        <mxCell id="CCAKP2tyW_ClBs_9teVJ-36" value="N" style="text;html=1;align=center;verticalAlign=middle;resizable=0;points=[];autosize=1;strokeColor=none;fillColor=none;" parent="1" vertex="1">
          <mxGeometry x="60" y="-225" width="30" height="30" as="geometry" />
        </mxCell>
        <mxCell id="ACHJTDMyuRf8ZzQNTnVx-1" value="user_tyoe" style="ellipse;whiteSpace=wrap;html=1;" vertex="1" parent="1">
          <mxGeometry x="-180" y="-510" width="120" height="80" as="geometry" />
        </mxCell>
        <mxCell id="ACHJTDMyuRf8ZzQNTnVx-2" value="" style="endArrow=none;html=1;rounded=0;entryX=0.5;entryY=1;entryDx=0;entryDy=0;exitX=0.448;exitY=-0.043;exitDx=0;exitDy=0;exitPerimeter=0;" edge="1" parent="1" source="ErqUiqEADnRc6sU7gWU9-1" target="ACHJTDMyuRf8ZzQNTnVx-1">
          <mxGeometry width="50" height="50" relative="1" as="geometry">
            <mxPoint x="-320" y="-340" as="sourcePoint" />
            <mxPoint x="-270" y="-390" as="targetPoint" />
          </mxGeometry>
        </mxCell>
        <mxCell id="ACHJTDMyuRf8ZzQNTnVx-3" value="owner" style="ellipse;whiteSpace=wrap;html=1;" vertex="1" parent="1">
          <mxGeometry x="820" y="-190" width="120" height="80" as="geometry" />
        </mxCell>
        <mxCell id="ACHJTDMyuRf8ZzQNTnVx-4" value="" style="endArrow=none;html=1;rounded=0;entryX=0.058;entryY=0.417;entryDx=0;entryDy=0;entryPerimeter=0;exitX=1;exitY=1;exitDx=0;exitDy=0;" edge="1" parent="1" source="ErqUiqEADnRc6sU7gWU9-3" target="ACHJTDMyuRf8ZzQNTnVx-3">
          <mxGeometry width="50" height="50" relative="1" as="geometry">
            <mxPoint x="740" y="-110" as="sourcePoint" />
            <mxPoint x="790" y="-160" as="targetPoint" />
          </mxGeometry>
        </mxCell>
        <mxCell id="ACHJTDMyuRf8ZzQNTnVx-5" value="author" style="ellipse;whiteSpace=wrap;html=1;" vertex="1" parent="1">
          <mxGeometry x="100" y="570" width="120" height="80" as="geometry" />
        </mxCell>
        <mxCell id="ACHJTDMyuRf8ZzQNTnVx-6" value="" style="endArrow=none;html=1;rounded=0;entryX=0;entryY=0;entryDx=0;entryDy=0;exitX=1;exitY=0.5;exitDx=0;exitDy=0;" edge="1" parent="1" source="ErqUiqEADnRc6sU7gWU9-6" target="ACHJTDMyuRf8ZzQNTnVx-5">
          <mxGeometry width="50" height="50" relative="1" as="geometry">
            <mxPoint x="-150" y="610" as="sourcePoint" />
            <mxPoint x="-100" y="560" as="targetPoint" />
          </mxGeometry>
        </mxCell>
        <mxCell id="ACHJTDMyuRf8ZzQNTnVx-7" value="Log" style="rounded=0;whiteSpace=wrap;html=1;" vertex="1" parent="1">
          <mxGeometry x="-300" y="60" width="120" height="60" as="geometry" />
        </mxCell>
        <mxCell id="ACHJTDMyuRf8ZzQNTnVx-8" value="col" style="ellipse;whiteSpace=wrap;html=1;" vertex="1" parent="1">
          <mxGeometry x="-480" y="30" width="120" height="80" as="geometry" />
        </mxCell>
        <mxCell id="ACHJTDMyuRf8ZzQNTnVx-9" value="&lt;u&gt;table&lt;/u&gt;" style="ellipse;whiteSpace=wrap;html=1;" vertex="1" parent="1">
          <mxGeometry x="-480" y="-50" width="120" height="80" as="geometry" />
        </mxCell>
        <mxCell id="ACHJTDMyuRf8ZzQNTnVx-10" value="date" style="ellipse;whiteSpace=wrap;html=1;" vertex="1" parent="1">
          <mxGeometry x="-400" y="-120" width="120" height="80" as="geometry" />
        </mxCell>
        <mxCell id="ACHJTDMyuRf8ZzQNTnVx-11" value="" style="endArrow=none;html=1;rounded=0;" edge="1" parent="1" source="ACHJTDMyuRf8ZzQNTnVx-10" target="ACHJTDMyuRf8ZzQNTnVx-7">
          <mxGeometry width="50" height="50" relative="1" as="geometry">
            <mxPoint x="90" y="-80" as="sourcePoint" />
            <mxPoint x="140" y="-130" as="targetPoint" />
          </mxGeometry>
        </mxCell>
        <mxCell id="ACHJTDMyuRf8ZzQNTnVx-12" value="" style="endArrow=none;html=1;rounded=0;" edge="1" parent="1" source="ACHJTDMyuRf8ZzQNTnVx-9" target="ACHJTDMyuRf8ZzQNTnVx-7">
          <mxGeometry width="50" height="50" relative="1" as="geometry">
            <mxPoint x="-379" y="-66" as="sourcePoint" />
            <mxPoint x="-257" y="70" as="targetPoint" />
          </mxGeometry>
        </mxCell>
        <mxCell id="ACHJTDMyuRf8ZzQNTnVx-13" value="" style="endArrow=none;html=1;rounded=0;" edge="1" parent="1" source="ACHJTDMyuRf8ZzQNTnVx-8" target="ACHJTDMyuRf8ZzQNTnVx-7">
          <mxGeometry width="50" height="50" relative="1" as="geometry">
            <mxPoint x="90" y="-80" as="sourcePoint" />
            <mxPoint x="140" y="-130" as="targetPoint" />
          </mxGeometry>
        </mxCell>
        <mxCell id="ACHJTDMyuRf8ZzQNTnVx-17" value="id" style="ellipse;whiteSpace=wrap;html=1;" vertex="1" parent="1">
          <mxGeometry x="-280" y="-110" width="120" height="80" as="geometry" />
        </mxCell>
        <mxCell id="ACHJTDMyuRf8ZzQNTnVx-18" value="" style="endArrow=none;html=1;rounded=0;entryX=0.5;entryY=1;entryDx=0;entryDy=0;exitX=0.448;exitY=-0.043;exitDx=0;exitDy=0;exitPerimeter=0;" edge="1" parent="1" source="ACHJTDMyuRf8ZzQNTnVx-7" target="ACHJTDMyuRf8ZzQNTnVx-17">
          <mxGeometry width="50" height="50" relative="1" as="geometry">
            <mxPoint x="-490" y="-10" as="sourcePoint" />
            <mxPoint x="-440" y="-60" as="targetPoint" />
          </mxGeometry>
        </mxCell>
        <mxCell id="ACHJTDMyuRf8ZzQNTnVx-20" value="row" style="ellipse;whiteSpace=wrap;html=1;" vertex="1" parent="1">
          <mxGeometry x="-480" y="110" width="120" height="80" as="geometry" />
        </mxCell>
        <mxCell id="ACHJTDMyuRf8ZzQNTnVx-21" value="new:data" style="ellipse;whiteSpace=wrap;html=1;" vertex="1" parent="1">
          <mxGeometry x="-360" y="190" width="120" height="80" as="geometry" />
        </mxCell>
        <mxCell id="ACHJTDMyuRf8ZzQNTnVx-22" value="old_data" style="ellipse;whiteSpace=wrap;html=1;" vertex="1" parent="1">
          <mxGeometry x="-480" y="190" width="120" height="80" as="geometry" />
        </mxCell>
        <mxCell id="ACHJTDMyuRf8ZzQNTnVx-23" value="type" style="ellipse;whiteSpace=wrap;html=1;" vertex="1" parent="1">
          <mxGeometry x="-240" y="190" width="120" height="80" as="geometry" />
        </mxCell>
        <mxCell id="ACHJTDMyuRf8ZzQNTnVx-24" value="" style="endArrow=none;html=1;rounded=0;exitX=1;exitY=0.5;exitDx=0;exitDy=0;entryX=0;entryY=1;entryDx=0;entryDy=0;" edge="1" parent="1" source="ACHJTDMyuRf8ZzQNTnVx-20" target="ACHJTDMyuRf8ZzQNTnVx-7">
          <mxGeometry width="50" height="50" relative="1" as="geometry">
            <mxPoint x="-370" y="100" as="sourcePoint" />
            <mxPoint x="-320" y="50" as="targetPoint" />
          </mxGeometry>
        </mxCell>
        <mxCell id="ACHJTDMyuRf8ZzQNTnVx-25" value="" style="endArrow=none;html=1;rounded=0;entryX=0.25;entryY=1;entryDx=0;entryDy=0;exitX=1;exitY=0;exitDx=0;exitDy=0;" edge="1" parent="1" source="ACHJTDMyuRf8ZzQNTnVx-22" target="ACHJTDMyuRf8ZzQNTnVx-7">
          <mxGeometry width="50" height="50" relative="1" as="geometry">
            <mxPoint x="-420" y="260" as="sourcePoint" />
            <mxPoint x="-370" y="210" as="targetPoint" />
          </mxGeometry>
        </mxCell>
        <mxCell id="ACHJTDMyuRf8ZzQNTnVx-26" value="" style="endArrow=none;html=1;rounded=0;entryX=0.5;entryY=1;entryDx=0;entryDy=0;" edge="1" parent="1" target="ACHJTDMyuRf8ZzQNTnVx-7">
          <mxGeometry width="50" height="50" relative="1" as="geometry">
            <mxPoint x="-290" y="190" as="sourcePoint" />
            <mxPoint x="-290" y="210" as="targetPoint" />
          </mxGeometry>
        </mxCell>
        <mxCell id="ACHJTDMyuRf8ZzQNTnVx-27" value="" style="endArrow=none;html=1;rounded=0;entryX=0.75;entryY=1;entryDx=0;entryDy=0;exitX=0.395;exitY=-0.043;exitDx=0;exitDy=0;exitPerimeter=0;" edge="1" parent="1" source="ACHJTDMyuRf8ZzQNTnVx-23" target="ACHJTDMyuRf8ZzQNTnVx-7">
          <mxGeometry width="50" height="50" relative="1" as="geometry">
            <mxPoint x="-420" y="310" as="sourcePoint" />
            <mxPoint x="-370" y="260" as="targetPoint" />
          </mxGeometry>
        </mxCell>
      </root>
    </mxGraphModel>
  </diagram>
</mxfile>
